<svg id="icons" enable-background="new 0 0 64 64" height="512" viewBox="0 0 64 64" width="512" xmlns="http://www.w3.org/2000/svg"><g fill="#edab37"><path d="m19.998 59.998c-.256 0-.512-.098-.707-.293-.391-.391-.391-1.023 0-1.414l6.999-7c.391-.391 1.023-.391 1.414 0s.391 1.023 0 1.414l-6.999 7c-.195.195-.451.293-.707.293z"/><path d="m19.998 53c-.256 0-.512-.098-.707-.293-.391-.391-.391-1.023 0-1.414l6.999-7c.391-.391 1.023-.391 1.414 0s.391 1.023 0 1.414l-6.999 7c-.195.195-.451.293-.707.293z"/><path d="m19.998 46c-.256 0-.512-.098-.707-.293-.391-.391-.391-1.023 0-1.414l6.999-7c.391-.391 1.023-.391 1.414 0s.391 1.023 0 1.414l-6.999 7c-.195.195-.451.293-.707.293z"/><path d="m19.998 39.002c-.256 0-.512-.098-.707-.293-.391-.391-.391-1.023 0-1.414l6.999-7c.391-.391 1.023-.391 1.414 0s.391 1.023 0 1.414l-6.999 7c-.195.195-.451.293-.707.293z"/><path d="m19.998 32.004c-.256 0-.512-.098-.707-.293-.391-.391-.391-1.023 0-1.414l6.999-7c.391-.391 1.023-.391 1.414 0s.391 1.023 0 1.414l-6.999 7c-.195.195-.451.293-.707.293z"/><path d="m26.996 59.998c-.256 0-.512-.098-.707-.293l-6.999-7c-.391-.391-.391-1.023 0-1.414s1.023-.391 1.414 0l6.999 7c.391.391.391 1.023 0 1.414-.195.195-.451.293-.707.293z"/><path d="m26.996 53c-.256 0-.512-.098-.707-.293l-6.999-7c-.391-.391-.391-1.023 0-1.414s1.023-.391 1.414 0l6.999 7c.391.391.391 1.023 0 1.414-.195.195-.451.293-.707.293z"/><path d="m26.996 46c-.256 0-.512-.098-.707-.293l-6.999-7c-.391-.391-.391-1.023 0-1.414s1.023-.391 1.414 0l6.999 7c.391.391.391 1.023 0 1.414-.195.195-.451.293-.707.293z"/><path d="m26.996 39.002c-.256 0-.512-.098-.707-.293l-6.999-7c-.391-.391-.391-1.023 0-1.414s1.023-.391 1.414 0l6.999 7c.391.391.391 1.023 0 1.414-.195.195-.451.293-.707.293z"/><path d="m26.996 32.004c-.256 0-.512-.098-.707-.293l-6.999-7c-.391-.391-.391-1.023 0-1.414s1.023-.391 1.414 0l6.999 7c.391.391.391 1.023 0 1.414-.195.195-.451.293-.707.293z"/></g><path d="m4.002 11.002c-.386 0-.753-.224-.917-.6-.222-.506.009-1.095.515-1.316l15.997-7.002c.509-.221 1.097.01 1.317.516.222.506-.009 1.096-.515 1.316l-15.997 7.002c-.131.057-.266.084-.4.084z" fill="#656d78"/><path d="m52.002 11.002c-.09 0-.181-.012-.271-.037l-25.002-7.002c-.532-.148-.843-.701-.693-1.232.15-.532.709-.842 1.232-.693l25.003 7.002c.532.148.843.701.693 1.232-.124.441-.526.73-.962.73z" fill="#656d78"/><path d="m19.998 11.001c-.256 0-.512-.098-.707-.293-.391-.39-.391-1.023 0-1.414l6.999-7c.391-.391 1.023-.391 1.414 0 .391.39.391 1.023 0 1.414l-6.999 7c-.195.195-.451.293-.707.293z" fill="#edab37"/><path d="m26.996 11.001c-.256 0-.512-.098-.707-.293l-6.999-7c-.391-.391-.391-1.024 0-1.414.391-.391 1.023-.391 1.414 0l6.999 7c.391.391.391 1.024 0 1.414-.195.195-.451.293-.707.293z" fill="#edab37"/><path d="m19.998 11.002c-.553 0-1-.447-1-1v-7.002c0-.553.447-1 1-1s1 .447 1 1v7.002c0 .553-.447 1-1 1z" fill="#f6bb42"/><path d="m19.999 4c-.348 0-.685-.182-.869-.504-.274-.48-.107-1.091.372-1.365l3.504-2c.482-.272 1.09-.106 1.364.373.274.48.107 1.091-.372 1.365l-3.504 2c-.157.088-.327.131-.495.131z" fill="#f6bb42"/><path d="m26.997 4c-.168 0-.339-.043-.495-.132l-3.496-2c-.479-.274-.646-.886-.372-1.364s.887-.646 1.364-.372l3.496 2c.479.274.646.886.372 1.364-.184.323-.522.504-.869.504z" fill="#f6bb42"/><path d="m26.998 11.002c-.553 0-1-.447-1-1v-7.002c0-.553.447-1 1-1s1 .447 1 1v7.002c0 .553-.447 1-1 1z" fill="#f6bb42"/><path d="m50.995 44.998c-1.654 0-3-1.346-3-3 0-.553.447-1 1-1s1 .447 1 1c0 .552.448 1 1 1s1-.448 1-1c-.018-.362-.838-1.47-1.688-2.276-.4-.38-.417-1.013-.037-1.414.379-.4 1.014-.417 1.414-.037.542.515 2.312 2.303 2.312 3.728-.001 1.653-1.347 2.999-3.001 2.999z" fill="#656d78"/><path d="m50.995 39.996c-.553 0-1-.447-1-1v-.998c0-.553.447-1 1-1s1 .447 1 1v.998c0 .553-.447 1-1 1z" fill="#656d78"/><path d="m50.995 32.984c-.553 0-1-.447-1-1v-16.982c0-.553.447-1 1-1s1 .447 1 1v16.982c0 .553-.447 1-1 1z" fill="#656d78"/><path d="m8.001 14.01c.55 0 1 .449 1 1v3.99c0 .55-.45 1-1 1h-6c-.55 0-1-.45-1-1v-3.99c0-.551.45-1 1-1h1 2z" fill="#656d78"/><path d="m29.001 17.01v3h-7v-5h5z" fill="#5d9cec"/><path d="m22.001 15.01v5h7v4h-2-7-2v-9h3z" fill="#f6bb42"/><path d="m57.001 16.002c-.256 0-.512-.098-.707-.293l-5-5c-.391-.391-.391-1.023 0-1.414s1.023-.391 1.414 0l5 5c.391.391.391 1.023 0 1.414-.195.195-.451.293-.707.293z" fill="#f6bb42"/><path d="m51.001 16.002c-.256 0-.512-.098-.707-.293l-5-5c-.391-.391-.391-1.023 0-1.414s1.023-.391 1.414 0l5 5c.391.391.391 1.023 0 1.414-.195.195-.451.293-.707.293z" fill="#f6bb42"/><path d="m45.001 16.002c-.256 0-.512-.098-.707-.293l-5-5c-.391-.391-.391-1.023 0-1.414s1.023-.391 1.414 0l5 5c.391.391.391 1.023 0 1.414-.195.195-.451.293-.707.293z" fill="#f6bb42"/><path d="m39.001 16.002c-.256 0-.512-.098-.707-.293l-5-5c-.391-.391-.391-1.023 0-1.414s1.023-.391 1.414 0l5 5c.391.391.391 1.023 0 1.414-.195.195-.451.293-.707.293z" fill="#f6bb42"/><path d="m33.001 16.002c-.256 0-.512-.098-.707-.293l-5-5c-.391-.391-.391-1.023 0-1.414s1.023-.391 1.414 0l5 5c.391.391.391 1.023 0 1.414-.195.195-.451.293-.707.293z" fill="#f6bb42"/><path d="m27.001 16.002c-.256 0-.512-.098-.707-.293l-5-5c-.391-.391-.391-1.023 0-1.414s1.023-.391 1.414 0l5 5c.391.391.391 1.023 0 1.414-.195.195-.451.293-.707.293z" fill="#f6bb42"/><path d="m21.001 16.002c-.256 0-.512-.098-.707-.293l-5-5c-.391-.391-.391-1.023 0-1.414s1.023-.391 1.414 0l5 5c.391.391.391 1.023 0 1.414-.195.195-.451.293-.707.293z" fill="#f6bb42"/><path d="m15.001 16.002c-.256 0-.512-.098-.707-.293l-5-5c-.391-.391-.391-1.023 0-1.414s1.023-.391 1.414 0l5 5c.391.391.391 1.023 0 1.414-.195.195-.451.293-.707.293z" fill="#f6bb42"/><path d="m9.001 16.002c-.256 0-.512-.098-.707-.293l-5-5c-.391-.391-.391-1.023 0-1.414s1.023-.391 1.414 0l5 5c.391.391.391 1.023 0 1.414-.195.195-.451.293-.707.293z" fill="#f6bb42"/><path d="m63.924 15.384c.101-.244.101-.52 0-.764-.051-.123-.124-.233-.217-.325l-4.999-5c-.09-.09-.195-.154-.305-.202-.007-.003-.012-.009-.018-.013-.124-.051-.256-.078-.387-.078-.002 0-.002 0-.002 0h-56.995c-.553 0-1 .447-1 1v5c0 .553.447 1 1 1h62c.13 0 .26-.026.382-.077.245-.102.439-.296.541-.541zm-6.337-4.382 3 3h-58.586v-3z" fill="#ffce54"/><path d="m19.998 59.998c-.553 0-1-.447-1-1v-34.992c0-.553.447-1 1-1s1 .447 1 1v34.992c0 .553-.447 1-1 1z" fill="#f6bb42"/><path d="m26.998 59.998c-.553 0-1-.447-1-1v-34.992c0-.553.447-1 1-1s1 .447 1 1v34.992c0 .553-.447 1-1 1z" fill="#f6bb42"/><path d="m53.994 30.984h-5.998c-.553 0-1 .447-1 1v2.016c0 .082.01.163.03.243l1.001 3.998c.111.444.511.757.97.757h3.996c.459 0 .858-.313.97-.757l1.001-3.998c.021-.08.03-.161.03-.243v-2.016c0-.552-.447-1-1-1z" fill="#ffce54"/><path d="m4.004 15.002c0 .549-.45 1-1 1h-2.003c-.55 0-1-.451-1-1v-5c0-.55.45-1 1-1h2.003c.55 0 1 .45 1 1z" fill="#ffce54"/><path d="m3.004 9.002h1v7h-1z" fill="#ffce54"/><path d="m29.001 25.01h-11c-.553 0-1-.447-1-1s.447-1 1-1h11c.553 0 1 .447 1 1s-.447 1-1 1z" fill="#ffce54"/><path d="m30.001 59c.55 0 1 .45 1 1v2c0 .55-.45 1-1 1h-13c-.55 0-1-.45-1-1v-2c0-.55.45-1 1-1h2 2 5 2z" fill="#545c66"/><path d="m37.001 64h-27c-.553 0-1-.447-1-1s.447-1 1-1h27c.553 0 1 .447 1 1s-.447 1-1 1z" fill="#656d78"/></svg>