<svg height="512pt" viewBox="-80 0 512 512" width="512pt" xmlns="http://www.w3.org/2000/svg"><path d="m316 84c-19.851562 0-36 16.148438-36 36v40h-36c-19.851562 0-36 16.148438-36 36s16.148438 36 36 36h72c19.851562 0 36-16.148438 36-36v-76c0-19.851562-16.148438-36-36-36zm0 0" fill="#a6ca3c"/><path d="m316 212h-72c-16.382812 0-30.230469-11-34.574219-26-.921875 3.175781-1.425781 6.53125-1.425781 10 0 19.851562 16.148438 36 36 36h72c19.851562 0 36-16.148438 36-36v-20c0 19.851562-16.148438 36-36 36zm0 0" fill="#95b440"/><path d="m108 108h-36v-40c0-19.851562-16.148438-36-36-36s-36 16.148438-36 36v76c0 19.851562 16.148438 36 36 36h72c19.851562 0 36-16.148438 36-36s-16.148438-36-36-36zm0 0" fill="#a6ca3c"/><path d="m140 160h-72c-19.851562 0-36-16.148438-36-36v-76c0-5.742188 1.359375-11.171875 3.761719-15.992188-19.742188.128907-35.761719 16.222657-35.761719 35.992188v76c0 19.851562 16.148438 36 36 36h72c14.109375 0 26.339844-8.160156 32.238281-20.007812-.078125.003906-.160156.007812-.238281.007812zm0 0" fill="#95b440"/><path d="m176 0c-44.113281 0-80 35.886719-80 80v176c0 4.417969 3.582031 8 8 8h144c4.417969 0 8-3.582031 8-8v-176c0-44.113281-35.886719-80-80-80zm0 0" fill="#90bd0b"/><path d="m144 248v-176c0-30.972656 17.703125-57.871094 43.515625-71.160156-3.761719-.542969-7.605469-.839844-11.515625-.839844-44.113281 0-80 35.886719-80 80v176c0 4.417969 3.582031 8 8 8h144c4.417969 0 8-3.582031 8-8h-104c-4.417969 0-8-3.582031-8-8zm0 0" fill="#7aa110"/><path d="m208 264c-4.417969 0-8-3.582031-8-8v-176c0-39.253906-16.476562-56.566406-24.007812-62.429688-7.484376 5.828126-23.992188 23.136719-23.992188 62.429688v176c0 4.417969-3.582031 8-8 8s-8-3.582031-8-8v-176c0-60.25 34.933594-78.410156 36.421875-79.15625 2.253906-1.125 4.902344-1.125 7.15625 0 1.488281.746094 36.421875 18.90625 36.421875 79.15625v176c0 4.417969-3.582031 8-8 8zm0 0" fill="#a6ca3c"/><path d="m286.121094 314.851562c-1.519532-1.808593-3.761719-2.851562-6.121094-2.851562h-208c-2.359375 0-4.601562 1.042969-6.121094 2.851562-1.523437 1.804688-2.164062 4.191407-1.761718 6.519532l32 184c.667968 3.832031 3.992187 6.628906 7.882812 6.628906h144c3.890625 0 7.214844-2.796875 7.882812-6.628906l32-184c.402344-2.328125-.238281-4.714844-1.761718-6.519532zm0 0" fill="#f6a350"/><path d="m104.117188 353.371094c-.402344-2.328125.238281-4.714844 1.761718-6.519532 1.519532-1.808593 3.757813-2.851562 6.121094-2.851562h171.945312l3.9375-22.628906c.402344-2.328125-.238281-4.714844-1.761718-6.519532-1.519532-1.808593-3.761719-2.851562-6.121094-2.851562h-208c-2.359375 0-4.601562 1.042969-6.121094 2.851562-1.523437 1.804688-2.164062 4.191407-1.761718 6.519532l32 184c.667968 3.832031 3.992187 6.628906 7.882812 6.628906h27.707031zm0 0" fill="#f48c25"/><path d="m304 248h-256c-4.417969 0-8 3.582031-8 8v64c0 4.417969 3.582031 8 8 8h256c4.417969 0 8-3.582031 8-8v-64c0-4.417969-3.582031-8-8-8zm0 0" fill="#f8ba7c"/><path d="m104 320v-64c0-4.417969 3.582031-8 8-8h-64c-4.417969 0-8 3.582031-8 8v64c0 4.417969 3.582031 8 8 8h64c-4.417969 0-8-3.582031-8-8zm0 0" fill="#f6a350"/></svg>