<svg id="Capa_1" enable-background="new 0 0 512 512" height="512" viewBox="0 0 512 512" width="512" xmlns="http://www.w3.org/2000/svg"><g><path d="m300.091 511.997h-228.994c-16.402 0-29.699-13.297-29.699-29.699v-23.867l3.602.002v-404.865h-3.602v-23.867c0-16.402 13.297-29.699 29.699-29.699h228.994c16.402 0 29.699 13.297 29.699 29.699v23.867h-4.29v404.863h4.29v23.867c0 16.403-13.297 29.699-29.699 29.699z" fill="#7a6d79"/><path d="m329.786 29.704v452.592c0 16.408-13.296 29.704-29.694 29.704h-20.614c16.398 0 29.694-13.296 29.694-29.704v-452.592c.001-16.408-13.295-29.704-29.693-29.704h20.614c16.397 0 29.693 13.296 29.693 29.704z" fill="#685e68"/><g><path d="m197.495 34.285h-23.801c-4.142 0-7.5-3.357-7.5-7.5s3.358-7.5 7.5-7.5h23.801c4.142 0 7.5 3.357 7.5 7.5s-3.358 7.5-7.5 7.5z" fill="#5b515b"/></g><path d="m41.398 53.568h288.391v404.863h-288.391z" fill="#c8effe"/><path d="m309.173 53.568h20.617v404.863h-20.617z" fill="#99e6fc"/><path d="m334.33 119.732c-75.407-.001-136.647 61.562-136.267 136.968.172 34.228 12.967 65.468 33.964 89.312 2.015 2.288 2.519 5.55 1.197 8.297-5.313 11.037-11.326 19.359-15.389 24.349-2.249 2.762-.575 6.923 2.956 7.39 15.732 2.079 34.845-5.814 43.088-9.708 2.163-1.022 4.672-.957 6.787.163 18.508 9.799 39.541 15.465 61.873 15.753 74.275.958 137.098-60.198 138.048-134.473.971-76.075-60.405-138.05-136.257-138.051z" fill="#cb97e7"/><path d="m470.59 257.783c-.958 74.271-63.778 135.431-138.049 134.473-17.882-.227-34.93-3.906-50.514-10.4 9.647 2.319 19.696 3.597 30.024 3.731 74.281.959 137.101-60.192 138.049-134.473.742-57.481-34.126-106.923-83.939-127.639 60.461 14.461 105.254 69.231 104.429 134.308z" fill="#bd80e1"/><g><g><g><circle cx="263.79" cy="255.935" fill="#ffeee7" r="18.437"/></g><g><circle cx="334.329" cy="255.935" fill="#ffeee7" r="18.437"/></g><g><circle cx="404.869" cy="255.935" fill="#ffeee7" r="18.437"/></g></g></g></g></svg>