<?xml version="1.0" encoding="utf-8"?>
<!-- Generator: Adobe Illustrator 24.0.1, SVG Export Plug-In . SVG Version: 6.00 Build 0)  -->
<svg version="1.1" id="Layer_1" xmlns="http://www.w3.org/2000/svg" xmlns:xlink="http://www.w3.org/1999/xlink" x="0px" y="0px"
	 viewBox="0 0 400 300" style="enable-background:new 0 0 400 300;" xml:space="preserve">
<style type="text/css">
	.st0{fill:#A88E69;}
	.st1{fill:#947A5B;}
	.st2{fill:#B79C79;}
</style>
<path class="st0" d="M377.54,67.06v22.02l-40.63,191.7c-2.16,10.19-11.21,17.48-21.69,17.48H85.17c-10.48,0-19.53-7.29-21.69-17.48
	L22.84,89.08V67.06L377.54,67.06L377.54,67.06z"/>
<path class="st1" d="M377.54,67.06v22.02l-40.63,191.7c-2.16,10.19-11.21,17.48-21.69,17.48h-37.41c10.48,0,19.53-7.29,21.69-17.48
	l30.96-146.08c2.77-13.06-6.71-25.55-20.11-26.5L22.84,87.8V67.06h317.29L377.54,67.06L377.54,67.06z"/>
<path class="st2" d="M22.69,1.01h355c12.16,0,22.02,9.86,22.02,22.02v44.04c0,12.16-9.86,22.02-22.02,22.02h-355
	c-12.16,0-22.02-9.86-22.02-22.02V23.02C0.67,10.86,10.53,1.01,22.69,1.01z"/>
<path class="st0" d="M399.71,23.02v44.04c0,12.16-9.92,22.02-22.17,22.02h-48.49c12.24,0,22.17-9.86,22.17-22.02V45.04V23.02V1.01
	h26.33C389.79,1.01,399.71,10.86,399.71,23.02z"/>
</svg>
